<svg width="581" height="518" viewBox="0 0 581 518" fill="none" xmlns="http://www.w3.org/2000/svg">
<g clip-path="url(#clip0_291_106)">
<path d="M142.297 271.027C139.294 268.889 135.616 264.338 135.574 258.871C135.535 251.458 131.051 242.029 121.689 246.862L108.736 253.55C108.369 253.742 108.051 254.014 107.806 254.347C107.561 254.68 107.395 255.064 107.321 255.47C107.248 255.876 107.268 256.294 107.381 256.691C107.494 257.088 107.696 257.455 107.973 257.762C110.657 260.589 113.671 263.087 116.95 265.201C126.525 271.721 128.863 279.477 128.863 279.477C128.863 279.477 142.235 279.196 142.297 271.027Z" stroke="white" stroke-width="6" stroke-miterlimit="10" stroke-linecap="round"/>
<path d="M149.954 229.906C149.954 229.906 159.274 227.807 177.204 215.255C195.134 202.703 378.999 74.4739 384.49 69.0775C387.945 65.6992 390.593 60.5195 392.089 57.1147C392.266 56.7019 392.532 56.3327 392.868 56.0328C393.203 55.733 393.6 55.5096 394.031 55.3784C394.462 55.2472 394.917 55.2114 395.363 55.2732C395.81 55.3351 396.237 55.4932 396.616 55.7367C400.161 58.065 405.737 61.6063 408.177 62.4911C411.89 63.8274 433.047 84.1641 428.7 94.8322C425.071 103.807 346.561 157.123 322.247 173.487C321.368 174.079 320.616 174.838 320.033 175.722C319.451 176.605 319.05 177.594 318.853 178.633C318.657 179.672 318.669 180.739 318.888 181.773C319.108 182.807 319.531 183.787 320.133 184.658L331.178 200.596C332.395 202.357 332.884 204.516 332.545 206.627C332.206 208.738 331.065 210.637 329.358 211.932C318.851 219.859 298.694 235.466 294.947 241.184C289.855 249.002 311.463 269.023 311.463 269.023C311.463 269.023 334.294 291.698 315.831 322.746C306.043 339.304 289.549 348.342 276.235 353.183C266.56 356.74 255.866 356.338 246.488 352.065C241.136 349.587 232.601 345.129 222.391 348.071C201.111 354.23 198.009 372.084 198.009 372.084C198.009 372.084 191.778 410.534 198.015 423.562C204.252 436.59 217.403 460.813 213.932 470.846C212.161 475.974 203.119 482.35 194.748 487.339C182.77 494.517 168.647 497.284 154.833 495.162C141.02 493.039 128.389 486.159 119.137 475.719L118.29 474.705C91.4185 442.961 83.9868 414.544 87.924 388.591C90.1443 375.264 94.3091 362.333 100.286 350.208C103.922 342.635 109.436 336.112 116.307 331.257C120.778 328.223 126.067 326.613 131.476 326.64C131.621 326.65 131.766 326.622 131.896 326.559C132.027 326.497 132.14 326.401 132.223 326.283C132.306 326.164 132.357 326.026 132.37 325.882C132.384 325.738 132.36 325.593 132.301 325.461C130.472 320.301 127.444 315.646 123.465 311.876C119.485 308.107 114.666 305.33 109.403 303.772C109.403 303.772 101.659 300.649 108.822 281.852C108.822 281.852 114.677 284.304 129.739 280.711C144.801 277.118 154.936 264.231 157.292 256.394C159.051 250.518 144.858 237.712 149.954 229.906Z" stroke="white" stroke-width="6" stroke-miterlimit="10" stroke-linecap="round"/>
<path d="M264.117 219.252L275.61 235.944C276.253 236.871 276.705 237.915 276.94 239.016C277.175 240.118 277.188 241.255 276.979 242.361C276.77 243.468 276.342 244.522 275.722 245.463C275.101 246.404 274.299 247.213 273.362 247.843L225.074 280.556C221.42 282.985 216.957 283.891 212.64 283.08C208.324 282.269 204.498 279.806 201.982 276.218L182.658 248.75C180.881 246.241 180.143 243.146 180.598 240.109C181.053 237.072 182.665 234.327 185.099 232.444L228.734 198.948C231.867 196.55 235.819 195.47 239.742 195.939C243.665 196.409 247.248 198.39 249.723 201.46L264.117 219.252Z" stroke="white" stroke-width="6" stroke-miterlimit="10" stroke-linecap="round"/>
<path d="M322.563 173.352L262.988 216.277" stroke="white" stroke-width="6" stroke-miterlimit="10" stroke-linecap="round"/>
<path d="M205.019 281.968L199.324 285.571C194.197 288.822 188.366 288.486 187.052 286.445L173.349 263.916C171.315 260.441 172.43 257.584 174.945 255.802L182.915 250.337L205.019 281.968Z" stroke="white" stroke-width="6" stroke-miterlimit="10" stroke-linecap="round"/>
<path d="M256.824 211.021C256.824 211.021 200.059 247 190.73 256.858" stroke="white" stroke-width="6" stroke-miterlimit="10" stroke-linecap="round"/>
<path d="M200.425 273.22C200.425 273.22 267.267 230.448 268.505 228.037" stroke="white" stroke-width="6" stroke-miterlimit="10" stroke-linecap="round"/>
<path d="M399.494 75.6613C399.444 76.0832 399.796 87.8893 409.312 92.0495C409.728 92.2256 410.195 92.2396 410.622 92.0887C411.048 91.9378 411.402 91.633 411.613 91.2345C412.875 88.8162 413.602 83.1533 401.224 74.855C401.063 74.7538 400.879 74.6945 400.689 74.6826C400.5 74.6707 400.31 74.7066 400.138 74.7869C399.965 74.8671 399.816 74.9893 399.704 75.1421C399.591 75.2949 399.519 75.4734 399.494 75.6613Z" stroke="white" stroke-width="5" stroke-miterlimit="10" stroke-linecap="round"/>
<path d="M282.376 265.81C281.759 265.658 281.118 265.636 280.492 265.746C279.867 265.855 279.271 266.094 278.743 266.445C270.332 271.968 232.602 297.297 228.23 308.799C223.269 321.752 255.767 339.718 266.009 338.253C287.891 335.102 296.306 322.014 301.476 308.578C305.409 298.392 308.735 272.485 282.376 265.81Z" stroke="white" stroke-width="6" stroke-miterlimit="10" stroke-linecap="round"/>
<path d="M251.982 287.814C251.982 287.814 256.245 304.1 267.663 311.012C267.705 311.036 267.741 311.071 267.765 311.113C267.79 311.155 267.803 311.202 267.804 311.251C267.805 311.299 267.793 311.347 267.769 311.39C267.746 311.432 267.712 311.468 267.67 311.493C264.376 313.233 243.067 323.749 230.394 309.285C234.937 299.894 242.55 292.322 251.982 287.814V287.814Z" stroke="white" stroke-width="6" stroke-miterlimit="10" stroke-linecap="round"/>
<path d="M131.599 337.575C126.174 340.688 97.962 360.4 114.206 426.528C114.206 426.528 133.313 490.552 170.069 481.361C170.069 481.361 191.397 472.822 190.739 463.805C190.739 463.805 173.142 433.103 173.625 417.902C174.008 406.661 181.576 387.689 185.51 378.545C186.142 377.105 186.218 375.484 185.723 373.991C185.228 372.499 184.198 371.242 182.829 370.461C170.806 363.53 140.63 345.773 133.084 337.758C132.892 337.568 132.642 337.446 132.373 337.413C132.104 337.38 131.832 337.437 131.599 337.575V337.575Z" stroke="white" stroke-width="6" stroke-miterlimit="10" stroke-linecap="round"/>
<path d="M138.372 457.353L158.813 422.144" stroke="white" stroke-width="5" stroke-miterlimit="10" stroke-linecap="round"/>
<path d="M125.534 415.413L155.488 464.375" stroke="white" stroke-width="5" stroke-miterlimit="10" stroke-linecap="round"/>
<path d="M122.644 382.499L160.37 442.381" stroke="white" stroke-width="5" stroke-miterlimit="10" stroke-linecap="round"/>
<path d="M130.305 363.829L156.874 408.697" stroke="white" stroke-width="5" stroke-miterlimit="10" stroke-linecap="round"/>
<path d="M145.82 357.467L167.855 395.324" stroke="white" stroke-width="5" stroke-miterlimit="10" stroke-linecap="round"/>
<path d="M123.627 430.171L160.593 375.412" stroke="white" stroke-width="5" stroke-miterlimit="10" stroke-linecap="round"/>
<path d="M120.1 399.216C120.772 398.122 150.154 361.703 150.154 361.703" stroke="white" stroke-width="5" stroke-miterlimit="10" stroke-linecap="round"/>
<path d="M458.254 69.8807C438.875 71.1255 423.24 65.5221 418.926 44.1149C417.333 36.7255 418.455 29.0116 422.088 22.3774C431.293 6.16246 443.106 21.7779 442.393 32.8148C442.393 32.8148 478.555 15.7312 460.629 49.3235C460.629 49.3235 496.735 56.8715 468.675 67.5862C465.335 68.8622 461.822 69.6355 458.254 69.8807V69.8807Z" stroke="white" stroke-width="6" stroke-miterlimit="10" stroke-linecap="round"/>
</g>
<defs>
<clipPath id="clip0_291_106">
<rect width="486.715" height="392.048" fill="white" transform="matrix(0.95667 -0.291175 0.292965 0.956123 -0.256836 142.52)"/>
</clipPath>
</defs>
</svg>
