<svg width="940" height="676" viewBox="0 0 940 676" fill="none" xmlns="http://www.w3.org/2000/svg">
<path d="M935.32 160.992L606.04 489.917H115.412V364.926L444.692 36H935.32V160.992Z" fill="#9F6F35" fill-opacity="0.84"/>
<path d="M606.04 489.917V364.926M606.04 489.917L935.32 160.992V36M606.04 489.917H115.412V364.926M606.04 364.926L935.32 36M606.04 364.926H115.412M935.32 36H444.692L115.412 364.926" stroke="black" stroke-width="9"/>
<path d="M469.086 671.264L594.608 545.97H492.621L367.1 671.264H469.086Z" fill="#9F6F35" fill-opacity="0.84" stroke="black" stroke-width="9"/>
<path d="M291.036 671.264L416.558 545.97H314.572L189.05 671.264H291.036Z" fill="#9F6F35" fill-opacity="0.84" stroke="black" stroke-width="9"/>
<path d="M112.986 671.264L238.508 545.97H136.522L11 671.264H112.986Z" fill="#9F6F35" fill-opacity="0.84" stroke="black" stroke-width="9"/>
<path d="M616.507 118.793L603.74 115.322L592.788 98.9613L590.652 96.8659C590.394 89.0933 590.656 81.3253 591.423 73.6132L592.978 57.9371C592.978 57.9371 603.697 83.0903 604.332 82.3961C604.961 81.7077 613.945 43.3291 613.945 43.3291L614.943 88.2942L648.916 40.6782L622.048 97.435L654.757 86.1694L628.325 102.228L649.937 107.171L616.507 118.793Z" stroke="white" stroke-width="2" stroke-miterlimit="10"/>
<path d="M391.812 286.976C392.2 285.727 392.641 285.285 393.128 285.656C393.46 286.033 393.93 286.444 394.542 286.861L395.081 287.351L395.631 287.842L396.186 288.305L396.604 288.618L397.149 289.104L397.693 289.589L398.002 289.84L398.46 290.285L398.97 290.645L400.213 291.746L401.261 292.596C401.657 292.99 402.235 293.487 402.991 294.092C403.243 294.355 403.432 294.509 403.552 294.56L404.223 295.228L404.555 295.49L405.97 296.695L406.479 297.054L407.247 297.739C407.528 297.95 407.86 298.258 408.249 298.67L408.547 298.806L408.977 299.234L409.515 299.725L409.847 299.988L410.529 300.633C410.924 300.901 411.32 301.238 411.721 301.637L416.337 305.495L416.71 305.889L417.477 306.574L418.445 307.379L418.835 307.676C419.671 308.441 420.467 309.108 421.212 309.679C421.63 310.084 422.208 310.581 422.947 311.169C423.199 311.431 423.388 311.585 423.509 311.637L423.881 312.031L424.167 312.19C424.511 312.556 424.952 312.938 425.496 313.343C426.247 314.08 426.928 314.668 427.541 315.084L428.079 315.575L428.624 316.06L428.962 316.328L431.006 318.069L431.889 318.822L432.261 319.216L433.114 319.953L433.721 320.329C434.048 320.712 434.489 321.106 435.033 321.511L435.451 321.824L436.557 322.778C435.916 322.894 435.212 322.878 434.45 322.737C434.084 322.772 433.168 322.683 431.708 322.486C431.462 322.515 431.182 322.487 430.855 322.402C429.957 322.399 428.852 322.304 427.541 322.107L420.391 321.444C419.424 321.429 418.577 321.34 417.838 321.187L413.035 320.815L412.629 320.73L411.65 320.681L411.249 320.602C411.152 320.642 411.003 320.643 410.803 320.603L408.868 320.448C406.023 320.014 405.273 320.159 406.636 320.877L408.257 322.63L408.59 322.893L412.113 326.633L412.445 326.895L414.731 329.323L415.143 329.848L418.214 332.931C418.535 333.377 418.976 333.851 419.549 334.342L424.768 339.773L425.278 340.315C424.705 340.397 424.058 340.347 423.349 340.154L423.131 340.143L421.477 339.889L421.024 339.885L419.152 339.62L418.437 339.502L418.036 339.423L414.968 339.018L414.567 338.939L402.511 337.229L402.299 337.212L400.616 336.942C400.336 336.948 400.124 336.932 399.981 336.869L397.044 336.504L396.643 336.425L396.242 336.346L392.699 335.857L392.252 335.858L391.314 335.723L390.827 335.592L384.352 334.732C384.009 334.63 383.62 334.597 383.185 334.609L382.051 334.36L381.198 334.277L379.773 334.011C379.412 333.995 379.08 333.916 378.788 333.773L383.868 323.154C384.435 323.216 385.07 323.346 385.78 323.55L386.416 323.623L386.839 323.702L387.457 323.803C387.784 323.888 388.013 323.968 388.156 324.019C388.923 324.12 389.559 324.25 390.068 324.415L390.6 324.465L391.001 324.544C391.425 324.589 392.129 324.753 393.125 325.026C393.452 325.111 393.892 325.184 394.465 325.24L394.951 325.37L395.667 325.489L396.154 325.619L396.869 325.738L397.47 325.937C397.98 325.964 398.592 326.071 399.308 326.258L399.52 326.275L397.446 323.865L397.033 323.339L395.905 322.157L395.406 321.58L392.868 318.547C392.519 318.153 392.272 317.873 392.14 317.696C392.003 317.524 391.843 317.353 391.665 317.188C391.487 317.022 391.281 316.782 391.063 316.462L389.969 315.291L389.493 314.623L388.898 314.029L388.399 313.452L387.425 312.207L386.829 311.613L386.331 311.036C385.878 310.608 385.494 310.065 385.196 309.413L391.682 310.055L392.352 310.071L401.969 310.94L402.701 310.961L405.169 311.167L406.022 311.251L407.27 311.419C407.47 311.459 407.773 311.464 408.168 311.423L410.172 311.658L410.401 311.646L411.162 311.684L409.066 310.236L408.505 309.768L407.995 309.408L407.428 309.015L406.735 308.587C406.706 308.501 406.597 308.416 406.403 308.325C406.042 307.999 405.572 307.657 404.994 307.309L403.361 306.094C402.594 305.512 401.953 305.067 401.431 304.742L400.698 304.183L400.108 303.778L398.476 302.563L397.869 302.187L393.43 298.941L392.875 298.479L392.365 298.119L392.004 297.954C391.976 297.868 391.884 297.766 391.712 297.64C391.546 297.52 391.34 297.406 391.105 297.298L389.622 296.163L389.364 296.02L388.722 295.507C389.003 295.065 389.225 294.452 389.391 293.679L389.791 292.785L390.076 291.754L390.459 290.958L390.624 290.402L391.533 288.024L391.698 287.469L391.812 286.976Z" fill="white"/>
<path d="M403.468 289.363L409.416 276.486C410.092 276.794 410.848 277.353 411.69 278.146L412.028 278.3L412.463 278.7L412.778 278.945L413.992 279.823C414.468 280.24 414.926 280.582 415.367 280.85L415.562 281.056L418.288 283.133C418.643 283.372 418.912 283.56 419.084 283.697C419.262 283.84 419.428 283.948 419.594 284.034C419.92 284.394 420.373 284.73 420.968 285.061L421.072 285.232L426.788 289.488L427.148 289.768L428.786 291.046L429.628 291.713C429.875 291.902 430.047 292.016 430.161 292.073L430.596 292.472L431.055 292.78L431.902 293.385L432.292 293.682L432.412 293.836L433.26 294.441L434.056 295.12C434.394 295.273 434.72 295.53 435.047 295.89L435.596 296.221L436.393 296.9C436.942 297.219 437.584 297.687 438.323 298.297L438.609 298.526L439.457 299.13L440.161 299.775L440.568 300.043C441.032 300.334 441.416 300.614 441.702 300.876L443.941 302.628L444.594 303.027C444.881 303.29 445.305 303.621 445.849 304.003L446.358 304.454L447.011 304.853L448.867 306.314L449.428 306.69C449.394 307.217 449.074 307.675 448.462 308.072L446.746 309.805C446.666 309.851 446.557 309.937 446.415 310.08L445.911 310.562L441.033 308.296L440.672 308.017L439.401 307.447C438.954 307.242 438.404 306.946 437.751 306.559L435.633 305.602L435.197 305.271L432.913 304.241C432.781 304.11 432.58 303.967 432.306 303.83L430.45 302.976C430.301 302.828 430.09 302.697 429.797 302.577L428.566 302.002C428.12 301.797 427.564 301.507 426.906 301.136L426.058 300.749C425.703 300.658 425.325 300.453 424.924 300.134L422.657 299.075L421.449 298.408C420.916 298.22 420.303 297.907 419.616 297.462L417.2 296.346L416.976 296.124L414.445 294.962L414.325 294.808L412.143 293.777L411.594 293.447L409.246 292.342L409.005 292.148L406.566 291.009L406.371 290.804L404.104 289.745L403.468 289.363Z" fill="white"/>
<path d="M413.775 266.006C414.457 266.045 415.264 266.243 416.191 266.596L417.491 266.942L417.772 267.073C418.092 267.117 418.533 267.225 419.094 267.395L419.632 267.543L422.18 268.264L422.661 268.434C423.067 268.496 423.531 268.627 424.041 268.837C424.361 268.882 424.796 268.996 425.34 269.183L425.621 269.314L429.365 270.381L429.823 270.426L430.533 270.699C431.077 270.783 431.718 270.965 432.451 271.249L433.951 271.635L434.232 271.765L435.325 272.032C435.646 272.077 436.075 272.207 436.596 272.429L437.69 272.696L437.97 272.827L440.238 273.416C440.701 273.512 441.251 273.694 441.898 273.95L443.759 274.421L445.138 274.824L427.68 253.144L434.199 244.84C434.628 245.257 435.029 245.817 435.419 246.526L435.494 246.726L435.872 247.343C436.262 247.983 436.571 248.452 436.795 248.766L437.677 250.241C437.918 250.572 438.159 250.972 438.411 251.452L438.612 251.789C438.864 252.098 439.11 252.504 439.345 253.001L439.718 253.498C439.97 253.978 440.354 254.601 440.875 255.361C441.025 255.67 441.185 255.979 441.357 256.276C441.529 256.573 441.758 256.905 442.045 257.27L444.446 261.242L444.876 262.048L445.306 262.591C445.507 263.031 445.822 263.552 446.24 264.14L446.321 264.346C446.573 264.654 446.796 265.037 446.997 265.478L447.564 266.306C447.564 266.375 447.639 266.483 447.788 266.62C448.023 267.118 448.413 267.747 448.934 268.507L450.401 270.93L450.602 271.267L450.831 271.621C451.032 272.062 451.347 272.582 451.765 273.17L454.316 277.405L454.517 277.594L455.606 279.549L456.035 280.091L458.873 284.761L459.096 285.075L459.904 286.487L460.105 286.824L461.349 288.784C460.484 288.655 459.557 288.348 458.572 287.858L457.524 287.523L456.911 287.324L456.556 287.131L453.241 285.908L452.983 285.789C452.611 285.704 452.17 285.55 451.661 285.317L450.693 284.924L450.138 284.805C449.731 284.572 449.17 284.344 448.477 284.123L447.865 283.924L446.674 283.48C446.49 283.389 446.216 283.298 445.855 283.202C445.62 283.071 445.3 282.946 444.887 282.809L442.162 281.809C441.939 281.769 441.698 281.655 441.423 281.473L441.063 281.388L440.164 281.052L441.435 282.263L441.997 282.685L442.982 283.61L443.262 283.741L446.293 286.521L446.648 286.714L447.851 287.868L448.687 288.53L451.379 290.95L451.66 291.081L454.558 293.684L454.839 293.815L456.34 295.231L449.751 302.047L445.306 297.799L444.578 296.994L443.049 295.515L442.619 294.973L441.198 293.614C440.866 293.317 440.511 292.94 440.133 292.483L438.38 290.805L437.95 290.262L435.762 288.184C435.647 288.001 435.481 287.801 435.252 287.584L433.402 285.831L433.253 285.568L430.99 283.393L430.709 282.999L429.363 281.737C428.985 281.36 428.487 280.841 427.862 280.173C427.266 279.682 426.556 278.962 425.731 278.026L424.815 277.158C424.408 276.752 423.915 276.239 423.342 275.61L421.675 274.006L421.165 273.406L419.384 271.711L419.034 271.259L416.766 269.09L416.617 268.827L414.28 266.6C414.182 266.435 414.016 266.235 413.775 266.006Z" fill="white"/>
<path d="M447.825 227.583L449.317 226.142C450.656 224.697 452.338 223.593 454.363 222.844C454.655 222.815 454.936 222.934 455.182 223.203C455.32 223.763 455.578 224.455 455.962 225.284L456.278 225.988L456.524 226.634L457.453 228.967C457.58 229.447 457.792 230.002 458.09 230.654L459.065 233.067C453.541 239.652 452.477 246.609 455.871 253.939C458.926 259.306 463.783 262.465 470.452 263.416C475.008 263.038 476.149 258.514 473.875 249.83L475.227 250.457L475.553 250.542L481.336 253.286L481.737 253.434L482.052 253.634L483.404 254.26L483.753 254.322L484.955 254.937C485.464 261.461 483.442 266.87 478.884 271.157C473.936 275.765 467.87 276.685 460.684 273.915L460.134 273.71L457.798 272.354C452.334 268.029 448.385 262.126 445.958 254.639C443.199 247.439 443.032 239.827 445.458 231.779L446.618 229.377L447.253 228.363C447.482 228.179 447.665 227.915 447.825 227.583Z" fill="white"/>
<path d="M459.378 209.632L459.962 209.047L480.945 229.012L484.557 223.004L481.779 220.086L477.385 215.501C477.041 215.158 476.634 214.707 476.176 214.159L473.632 211.6L473.483 211.28L471.398 209.179C471.043 208.733 470.287 207.934 469.135 206.775C468.706 206.427 468.259 205.924 467.8 205.261L467.583 205.044L468.292 204.035L468.669 203.53L469.086 202.94L469.607 202.292L469.75 201.977C469.984 201.741 470.207 201.426 470.396 201.031L471.128 200.17L471.396 199.729L471.562 199.436L471.917 199.081L472.271 198.553C472.563 198.18 472.763 197.911 472.854 197.762C472.951 197.607 473.049 197.441 473.146 197.252L473.5 196.896L474.554 197.958L475.013 198.541L476.05 199.746L476.875 200.866L485.28 211.222L485.756 211.822L486.793 213.027C492.746 220.46 495.892 224.35 496.23 224.698L496.705 225.298L497.141 225.904C497.846 226.698 498.424 227.412 498.871 228.063L499.393 228.583C499.393 228.697 499.547 228.909 499.845 229.205L500 229.486L500.539 230.022C500.991 230.668 501.415 231.194 501.811 231.599L502.269 232.182L502.55 232.633C502.997 233.079 503.501 233.684 504.062 234.45L504.521 235.032L504.824 235.335L505.042 235.724L505.627 236.306L506.171 236.974C505.679 237.376 505.044 237.761 504.277 238.13L503.539 238.561C503.247 238.739 503.047 238.883 502.95 238.98L501.943 239.555L501.645 239.716L498.048 236.107L497.314 235.205L494.381 232.258C494.083 231.87 493.677 231.419 493.173 230.916L489.73 227.45L485.773 233.07C486.312 233.915 487.103 234.864 488.151 235.92L491.296 239.078C491.554 239.426 491.892 239.797 492.287 240.203L495.283 243.212L495.782 243.88L498.411 246.524L498.322 249.455L498.242 249.833L498.22 250.554L498.14 250.932C498.203 251.075 498.203 251.419 498.152 251.951L498.09 252.312L498.102 252.907C498.102 253.022 498.033 253.148 497.896 253.285C497.392 252.978 496.813 252.55 496.16 252.002L495.943 251.785C495.845 251.768 495.651 251.62 495.358 251.328L494.156 250.415C493.652 250.108 493.039 249.634 492.311 248.978L491.928 248.755C491.584 248.493 491.212 248.156 490.811 247.756L490.209 247.317C489.854 247.158 489.482 246.878 489.093 246.49L488.342 245.856L488.044 245.72L487.592 245.269L487.008 244.812C486.893 244.812 486.687 244.653 486.389 244.356L485.891 243.985L484.688 243.072L484.087 242.633L483.485 242.159L482.821 241.657L482.368 241.332L482.151 241.115L480.805 240.059L480.289 239.672C479.986 239.483 479.717 239.261 479.476 239.021L479.109 238.782C468.617 230.668 462.895 226.235 461.955 225.481C461.451 224.979 460.89 224.488 460.266 224.014C459.641 223.541 458.616 222.771 457.19 221.692L456.657 221.322L456.354 221.019L455.987 220.78C455.684 220.477 455.294 220.18 454.807 219.89L454.275 219.519L453.158 218.394C453.506 218.044 453.872 217.528 454.238 216.84L454.45 216.628L454.884 215.894C455.119 215.659 455.267 215.464 455.325 215.326C455.576 215.074 455.793 214.764 455.971 214.38L456.348 214.002L457.491 212.259L457.806 211.817L458.515 210.934L459.378 209.632Z" fill="white"/>
<path d="M493.846 178.843L494.424 178.424C494.733 178.721 494.979 179.104 495.152 179.573L495.599 180.316L495.874 180.808L495.908 180.979L496.241 181.539L496.86 182.705L497.192 183.266L497.382 183.706L497.754 184.317L498.046 184.838L498.213 185.255L498.809 186.433L499.067 186.815L499.342 187.307L499.554 187.724L498.605 188.791L498.29 189.107C497.987 189.423 497.661 189.83 497.312 190.329C497.118 190.466 496.918 190.702 496.701 191.023L496.415 191.23C496.14 191.574 495.808 191.929 495.419 192.297L495.116 192.761L494.825 192.974L494.436 193.513L493.921 194.006L492.92 195.239C492.572 195.646 492.303 195.928 492.108 196.065C492.189 196.397 492.384 196.763 492.693 197.14L492.785 197.426L493.312 198.261L493.656 198.695L493.771 198.958L494.109 199.432L494.418 200.015L494.613 200.415L495.014 200.918L495.507 201.707C495.502 201.815 495.559 201.941 495.679 202.084C495.834 202.41 496.063 202.718 496.373 203.015L497.647 201.014L497.996 200.424L498.716 199.312L499.202 198.607L499.431 198.285L500.06 197.254L500.289 196.978L501.363 195.236L501.655 194.897L501.941 194.37L502.209 194.008L504.215 196.35C504.558 196.59 504.862 196.938 505.114 197.384L505.28 197.481L506.724 199.183L506.947 199.349L509.067 201.873L509.331 202.044L509.766 202.639L508.171 204.675C507.919 204.836 507.691 205.077 507.473 205.386C507.256 205.696 506.936 206.109 506.49 206.625L504.9 208.621L504.346 209.384L503.917 209.837C503.625 210.255 503.23 210.731 502.739 211.271L502.093 212.194C502.459 212.765 502.775 213.217 503.044 213.554C503.371 214.108 503.623 214.531 503.806 214.828L504.889 216.434L505.038 216.789L506.207 218.446L506.735 219.326L506.947 219.743L507.812 221.052L508.219 221.423L509.551 219.491L509.78 219.215L510.1 218.734L510.323 218.579L510.472 218.212L511.261 217.317L511.489 217.042L512.204 216.015L512.433 215.74L514.497 212.89C514.789 212.472 515.206 211.938 515.749 211.267C515.921 210.98 516.058 210.808 516.161 210.751L517.55 208.887C517.831 209.213 518.083 209.601 518.301 210.059L518.731 210.773L518.983 211.242L519.035 211.442L519.367 212.048L519.528 212.277C519.505 212.345 519.591 212.545 519.774 212.877L520.514 214.175L520.749 214.58L520.938 215.021L521.093 215.335L521.282 215.775L522.371 217.742L522.669 218.176C522.361 218.658 521.92 219.157 521.337 219.662L520.565 220.574C520.342 220.763 520.09 221.039 519.821 221.388L519.101 222.054L518.786 222.37L518.557 222.691L518.266 223.029L517.682 223.58C517.425 223.942 517.048 224.332 516.556 224.768C516.356 224.992 516.19 225.192 516.053 225.365C515.915 225.537 515.732 225.72 515.515 225.915C515.275 226.179 515.069 226.409 514.903 226.609L514.451 227.04L513.096 228.503L512.667 228.956C512.455 229.191 512.278 229.381 512.129 229.53C511.986 229.673 511.826 229.834 511.66 230C511.494 230.167 511.329 230.402 511.157 230.677C510.476 231.245 510.002 231.756 509.739 232.203C509.499 232.467 509.281 232.674 509.087 232.811L508.658 233.265C508.624 233.345 508.538 233.442 508.383 233.54L507.897 233.925L502.442 226.726C502.236 226.337 501.949 225.903 501.577 225.418L499.388 222.549L499.319 222.286L496.695 218.824C496.494 218.59 496.299 218.281 496.104 217.881L493.337 214.299L493.205 213.973L490.477 210.351C490.254 209.979 489.979 209.568 489.652 209.128L489.514 208.922C489.279 208.528 488.947 208.151 488.512 207.774L487.446 206.197C487.371 206.02 487.239 205.808 487.056 205.568L485.326 203.272C484.97 202.929 484.632 202.432 484.3 201.78L481.492 198.112C481.326 197.775 481.079 197.404 480.764 197.009L479.429 195.255C479.704 194.911 480.024 194.544 480.401 194.165L480.716 193.85C481.002 193.552 481.305 193.156 481.631 192.691L482.168 192.186L482.328 191.968L484.342 189.731L484.644 189.267L485.016 189.02L485.337 188.538L486.212 187.649C486.429 187.328 486.606 187.115 486.755 187.012L487.126 186.49L487.51 186.071L487.961 185.641L488.322 185.245L489.025 184.39L489.225 184.213L490.203 182.991L490.609 182.595L491.444 181.62L491.942 181.109L492.645 180.255L493.228 179.704L493.846 178.843Z" fill="white"/>
<path d="M505.462 174.396L508.909 169.39C512.626 164.63 516.929 162.593 521.823 163.297L522.413 163.736C522.482 164.091 522.54 164.537 522.569 165.069L522.684 165.71C522.684 165.939 522.725 166.277 522.816 166.723C522.788 167.072 522.817 167.479 522.903 167.919L523.174 170.042C523.266 170.786 523.324 171.473 523.347 172.091L523.399 172.36L521.952 173.147L521.717 173.326C521.385 173.475 521.008 173.694 520.59 173.987C520.504 174.004 520.258 174.136 519.858 174.389C519.463 174.613 519.148 174.837 518.919 175.055L518.605 175.176L518.313 175.435L516.134 177.266L515.688 177.759C514.676 179.462 514.391 181.386 514.845 183.52C516.714 187.053 521.053 187.763 527.852 185.651C528.252 185.627 528.727 185.552 529.271 185.419L529.666 185.355L529.849 185.251L531.268 185.019L531.583 184.898L532.35 184.781C542.457 183.463 548.448 187.741 550.311 197.627C550.657 201.496 549.573 205.139 547.068 208.557C543.758 213.47 538.621 216.723 531.645 218.303C531.381 218.349 531.106 218.304 530.803 218.173L530.109 216.67L529.897 216.184L529.737 215.921L529.341 214.954L529.175 214.731L528.544 213.256L528.378 213.033C528.309 212.679 528.114 212.279 527.799 211.827L526.761 209.511C536.142 209.78 541.056 205.309 541.483 196.081C541.397 195.411 541.173 194.719 540.818 194.022L540.709 193.833C539.529 192.76 538.097 192.294 536.409 192.442C535.653 192.524 534.749 192.709 533.685 192.998L532.368 193.413L531.819 193.563C524.508 198.103 517.026 197.899 509.381 192.955C508.716 192.567 507.977 191.957 507.164 191.146L506.849 190.923C503.239 185.941 502.771 180.43 505.462 174.396Z" fill="white"/>
<path d="M550.819 132.11L553.49 129.819C554.051 130.379 554.653 131.196 555.301 132.253C555.524 132.602 555.799 132.979 556.143 133.379L556.842 134.51C557.014 134.716 557.215 134.984 557.427 135.333L558.722 137.161C559.157 137.756 559.473 138.276 559.668 138.722L559.868 138.956L555.11 144.486C555.116 144.583 555.059 144.686 554.933 144.801C554.807 144.916 554.693 145.03 554.59 145.157C554.487 145.283 554.384 145.432 554.276 145.61L553.892 145.937C553.749 146.252 553.469 146.579 553.069 146.923C552.811 147.227 552.634 147.474 552.537 147.663C552.337 147.91 552.068 148.191 551.719 148.484L551.176 149.349L553.542 152.108L553.657 152.417L564.022 164.646L564.154 164.938L569.001 170.593L569.471 171.278L574.002 176.562C574.174 176.767 574.363 177.047 574.57 177.402L576.736 179.926L575.66 181.085L575.38 181.481L574.305 182.766L573.991 183.036L573.71 183.431L573.482 183.752L572.938 184.343C572.796 184.658 572.515 184.985 572.115 185.33L571.749 185.766L571.6 186.052L570.639 186.879C570.101 186.457 569.494 185.863 568.835 185.092L568.508 184.847L567.913 184.15C567.684 184.001 567.431 183.773 567.168 183.465C566.904 183.156 566.681 182.945 566.503 182.825L565.06 181.283C564.791 181.061 564.487 180.747 564.137 180.341L563.845 180.187L563.135 179.353C562.917 179.194 562.677 178.954 562.413 178.645L561.812 178.08L560.488 176.715C559.95 176.27 559.354 175.665 558.707 174.905L558.077 174.357L557.492 173.809C557.137 173.307 556.547 172.707 555.711 171.999L554.135 170.337L553.591 169.841L551.271 167.448C550.744 167.015 550.16 166.421 549.507 165.667L549.157 165.444C548.624 164.913 548.12 164.365 547.639 163.805L547.175 163.4L545.995 162.155L545.365 161.607L543.062 159.197L542.501 159.313L541.489 160.546L541.266 160.736C541.014 161.137 540.665 161.533 540.213 161.918L539.916 162.296L539.476 162.83L539.247 163.151L538.704 163.742L537.286 165.359L536.914 165.835L536.588 166.231L536.199 166.69L535.742 167.206L535.37 167.682L534.912 168.198L533.632 169.701C533.236 169.422 532.767 169.022 532.217 168.497L531.97 168.343L530.876 167.39L530.355 166.916L529.971 166.602L529.605 166.351C528.82 165.706 528.156 165.136 527.623 164.628C527.262 164.291 527.016 164.08 526.884 163.971C526.758 163.868 526.609 163.754 526.449 163.617C526.288 163.492 526.117 163.366 525.939 163.247L524.667 162.082L524.215 161.826L523.356 160.958L522.657 160.467L521.941 159.627C522.25 159.203 522.673 158.801 523.211 158.422L523.691 157.894L530.755 151.277L530.829 151.088L533.443 148.729L533.591 148.443C534.244 147.995 534.718 147.541 535.016 147.105L539.317 143.134L539.414 142.933L543.584 139.116L543.664 138.887L546.432 136.396C546.541 136.218 546.718 136.029 546.958 135.822L550.819 132.11Z" fill="white"/>
<path d="M571.336 114.652L571.88 114.187C572.212 114.461 572.481 114.821 572.693 115.273L573.203 115.975L573.513 116.444L573.559 116.616L573.931 117.147L574.642 118.256L575.015 118.787L575.238 119.216L575.656 119.793L575.989 120.284L576.189 120.69L576.877 121.822L577.158 122.193L577.468 122.662L577.714 123.068L576.851 124.209L576.559 124.547C576.284 124.891 575.987 125.316 575.678 125.832C575.501 125.987 575.312 126.233 575.124 126.571L574.855 126.807C574.615 127.174 574.306 127.552 573.946 127.948L573.677 128.435L573.408 128.671L573.065 129.244L572.585 129.772L571.682 131.079C571.367 131.52 571.121 131.813 570.938 131.962C571.047 132.288 571.265 132.631 571.597 132.985L571.712 133.26L572.308 134.048L572.68 134.454L572.812 134.711L573.185 135.162L573.534 135.717L573.758 136.099L574.193 136.568L574.743 137.311C574.743 137.425 574.818 137.545 574.944 137.671C575.122 137.985 575.379 138.276 575.712 138.55L576.826 136.458L577.129 135.845L577.758 134.676L578.186 133.936L578.386 133.598L578.935 132.521L579.141 132.222L580.072 130.406L580.341 130.044L580.581 129.494L580.827 129.11L583.004 131.291C583.365 131.502 583.691 131.828 583.983 132.256L584.155 132.347L585.731 133.929L585.971 134.077L588.286 136.43L588.566 136.584L589.047 137.143L587.618 139.299C587.378 139.483 587.172 139.735 586.978 140.056C586.789 140.383 586.492 140.819 586.097 141.364L584.662 143.479L584.171 144.282L583.776 144.769C583.519 145.211 583.164 145.715 582.713 146.295L582.141 147.269C582.548 147.812 582.903 148.235 583.195 148.549C583.562 149.074 583.854 149.48 584.061 149.766L585.27 151.28L585.447 151.617L586.736 153.176L587.332 154.011L587.579 154.416L588.547 155.656L588.983 155.998L590.16 153.969L590.366 153.671L590.652 153.167L590.863 153L590.983 152.616L591.704 151.664L591.909 151.366L592.538 150.289L592.744 149.99L594.579 146.981C594.836 146.539 595.208 145.972 595.705 145.266C595.854 144.968 595.98 144.785 596.071 144.716L597.312 142.75C597.615 143.052 597.896 143.424 598.148 143.858L598.635 144.538L598.922 144.984L598.991 145.178L599.363 145.755L599.541 145.967C599.529 146.035 599.621 146.23 599.833 146.544L600.67 147.778L600.934 148.167L601.157 148.596L601.335 148.899L601.558 149.327L602.796 151.202L603.123 151.607C602.854 152.118 602.448 152.639 601.911 153.19L601.213 154.165C601.002 154.377 600.779 154.67 600.533 155.031L599.875 155.748L599.583 156.087L599.383 156.425L599.115 156.786L598.583 157.377C598.348 157.761 598.011 158.18 597.548 158.645C597.365 158.885 597.222 159.098 597.096 159.281C596.97 159.465 596.81 159.66 596.599 159.872C596.376 160.153 596.193 160.405 596.044 160.612L595.632 161.071L594.397 162.631L594.002 163.118C593.808 163.37 593.648 163.577 593.505 163.732C593.368 163.881 593.225 164.059 593.07 164.237C592.922 164.42 592.773 164.661 592.619 164.953C591.978 165.573 591.549 166.118 591.321 166.576C591.098 166.857 590.903 167.075 590.726 167.23L590.331 167.718C590.303 167.804 590.223 167.907 590.086 168.01L589.628 168.435L583.635 161.684C583.4 161.313 583.079 160.901 582.667 160.444L580.255 157.754L580.163 157.503L577.276 154.259C577.058 154.042 576.84 153.745 576.617 153.362L573.58 150.003L573.42 149.683L570.423 146.285C570.171 145.931 569.867 145.548 569.507 145.131L569.352 144.942C569.088 144.577 568.727 144.217 568.263 143.869L567.077 142.378C566.986 142.207 566.842 142.007 566.636 141.778L564.734 139.619C564.362 139.305 563.978 138.831 563.594 138.208L560.512 134.77C560.322 134.444 560.047 134.09 559.698 133.719L558.231 132.074C558.477 131.713 558.774 131.323 559.117 130.91L559.409 130.571C559.672 130.25 559.941 129.843 560.232 129.344L560.73 128.799L560.873 128.564L562.703 126.179L562.971 125.691L563.326 125.416L563.612 124.911L564.412 123.959C564.601 123.621 564.767 123.397 564.904 123.282L565.23 122.738L565.579 122.296L565.996 121.832L566.328 121.407L566.962 120.496L567.151 120.306L568.026 119.016L568.397 118.597L569.158 117.559L569.615 117.009L570.25 116.097L570.788 115.501L571.336 114.652Z" fill="white"/>
<path d="M579.119 105.102C588.719 91.8621 596.922 93.7593 603.725 110.788L606.089 111.132L606.341 111.108L606.759 111.227C607.097 111.198 607.474 111.243 607.881 111.351L608.156 111.35L609.902 111.638L611.07 111.761L611.522 111.788C612.163 111.935 612.999 112.048 614.018 112.125L614.436 112.244L614.687 112.221L616.107 112.469L616.708 112.508L620.292 113.014L620.767 113.064L621.437 113.16L621.889 113.188L622.788 113.351L623.24 113.379L623.818 113.738L624.175 115.752L624.272 116.067C624.29 116.462 624.376 116.959 624.548 117.554L625.129 120.833C625.17 121.17 625.267 121.599 625.422 122.108C625.474 122.457 625.468 122.726 625.4 122.898L623.528 122.771L622.996 122.79L622.326 122.694L621.851 122.644C621.513 122.673 621.158 122.651 620.798 122.578L620.391 122.584L618.531 122.434C618.216 122.407 617.97 122.39 617.804 122.408L616.579 122.353L616.104 122.303L615.526 122.287L615.05 122.237L614.449 122.198L612.915 122.088L612.44 122.037L611.868 122.027L611.267 121.989L607.111 121.701L606.659 121.674C606.561 121.668 606.264 121.658 605.777 121.642L606.281 121.938L607.175 122.68L607.392 122.748L608.125 123.353C608.463 123.553 608.836 123.821 609.242 124.157C609.517 124.306 609.838 124.534 610.222 124.848C610.6 125.156 611.069 125.464 611.63 125.783L613.71 127.386L614.591 128.002L614.998 128.224L616.567 129.4L617.146 129.759L618.824 131.031L620.009 131.893C620.353 132.178 620.811 132.474 621.373 132.782L622.123 133.404L622.627 133.701L622.227 135.098L622.045 135.751L621.748 136.885C621.68 137.389 621.588 137.756 621.485 137.973L621.046 139.56L620.749 140.694L620.721 141.021C620.635 141.439 620.464 141.805 620.201 142.127L617.372 140.371L617.16 140.194L616.456 139.846L616.009 139.481L615.574 139.242L613.919 138.221L613.483 137.982L612.601 137.366L612.166 137.126L609.772 135.61L609.56 135.433L608.117 134.589L607.235 133.973L606.657 133.614L606.078 133.255C605.993 133.261 605.804 133.141 605.5 132.896L604.996 132.599L601.761 130.621L601.113 130.205L600.443 129.766L599.727 129.293L599.435 129.162L598.989 128.796L598.553 128.557C598.118 128.375 597.683 128.113 597.242 127.742L596.95 127.611L595.157 126.476L594.51 126.06L592.838 125.022L592.626 124.845C592.254 124.692 591.87 124.447 591.475 124.133L590.032 123.289C589.654 123.05 589.362 122.873 589.167 122.748C588.978 122.628 588.806 122.502 588.646 122.377L587.638 121.773L587.426 121.596L586.252 120.86L585.674 120.501L584.757 119.977L584.087 119.538L583.205 118.922L582.627 118.562L582.049 118.203L581.47 117.844C581.384 117.85 581.264 117.787 581.104 117.662L580.245 117.069L579.649 116.692L579.071 116.333L578.492 115.974L577.988 115.677C577.65 115.478 577.375 115.307 577.158 115.17C576.94 115.033 576.642 114.839 576.259 114.606L575.68 114.246L575.314 114.064L574.42 113.322L575.455 111.299L575.781 110.766L576.049 110.302L576.323 109.683L576.552 109.408L576.764 109.012L577.124 108.387L577.278 108.061L577.495 107.659L578.044 106.845L578.501 106.146L579.05 105.332L579.119 105.102ZM593.001 107.272C590.527 106.019 588.364 106.299 586.528 108.106C586.236 108.559 586.065 109.063 586.014 109.642C586.438 109.835 586.873 110.12 587.331 110.497L587.835 110.793L590.023 112.368C590.647 112.727 591.157 113.075 591.546 113.394L591.982 113.634L593.001 114.364L593.436 114.603L593.872 114.843C596.096 111.649 595.802 109.125 593.001 107.272Z" fill="white"/>
</svg>
